<svg id="Layer_1" data-name="Layer 1" xmlns="http://www.w3.org/2000/svg" xmlns:xlink="http://www.w3.org/1999/xlink" viewBox="0 0 1200 1200"><defs><style>.cls-1{fill:url(#radial-gradient);}.cls-2{fill:#e6e7e8;}.cls-3{fill:#334856;}.cls-4{fill:#35c5f1;}.cls-5{fill:#e01d5a;}.cls-6{fill:url(#radial-gradient-2);}.cls-7{fill:#da1c5c;}.cls-8{fill:url(#radial-gradient-3);}.cls-9{fill:#e5e6e7;}.cls-10{fill:url(#radial-gradient-4);}.cls-11{fill:#e4e5e6;}.cls-12{fill:url(#radial-gradient-5);}.cls-13{fill:#e3e4e5;}.cls-14{fill:url(#radial-gradient-6);}.cls-15{fill:url(#radial-gradient-7);}.cls-16{fill:#e2e3e4;}.cls-17{fill:url(#radial-gradient-8);}.cls-18{fill:url(#radial-gradient-9);}.cls-19{fill:#e0e1e2;}.cls-20{fill:url(#radial-gradient-10);}.cls-21{fill:#dfe0e1;}.cls-22{fill:url(#radial-gradient-11);}.cls-23{fill:#dedfe1;}.cls-24{fill:url(#radial-gradient-12);}.cls-25{fill:#dddfe0;}.cls-26{fill:url(#radial-gradient-13);}.cls-27{fill:#dcddde;}.cls-28{fill:#7ab84f;}.cls-29{fill:url(#radial-gradient-14);}.cls-30{fill:#dadbdd;}.cls-31{fill:url(#radial-gradient-15);}.cls-32{fill:#d9dbdc;}.cls-33{fill:url(#radial-gradient-16);}.cls-34{fill:#d8d9da;}.cls-35{fill:url(#radial-gradient-17);}.cls-36{fill:#d6d7d9;}.cls-37{fill:url(#radial-gradient-18);}.cls-38{fill:#d4d6d7;}.cls-39{fill:url(#radial-gradient-19);}.cls-40{fill:#d3d4d6;}.cls-41{fill:url(#radial-gradient-20);}.cls-42{fill:#d2d3d5;}.cls-43{fill:url(#radial-gradient-21);}.cls-44{fill:#d0d2d3;}.cls-45{fill:url(#radial-gradient-22);}.cls-46{fill:#cecfd1;}.cls-47{fill:url(#radial-gradient-23);}.cls-48{fill:#cccecf;}.cls-49{fill:url(#radial-gradient-24);}.cls-50{fill:#caccce;}.cls-51{fill:url(#radial-gradient-25);}.cls-52{fill:#c8cacb;}.cls-53{fill:url(#radial-gradient-26);}.cls-54{fill:#c6c8ca;}.cls-55{fill:url(#radial-gradient-27);}.cls-56{fill:#c4c5c7;}.cls-57{fill:url(#radial-gradient-28);}.cls-58{fill:#c1c3c5;}.cls-59{fill:url(#radial-gradient-29);}.cls-60{fill:#c0c1c3;}.cls-61{fill:url(#radial-gradient-30);}.cls-62{fill:#bdbfc1;}.cls-63{fill:url(#radial-gradient-31);}.cls-64{fill:#bbbdbf;}.cls-65{fill:url(#radial-gradient-32);}.cls-66{fill:#b8babc;}.cls-67{fill:url(#radial-gradient-33);}.cls-68{fill:#b6b8bb;}.cls-69{fill:url(#radial-gradient-34);}.cls-70{fill:#b3b5b7;}.cls-71{fill:url(#radial-gradient-35);}.cls-72{fill:#b1b3b6;}.cls-73{fill:url(#radial-gradient-36);}.cls-74{fill:#aeb0b3;}.cls-75{fill:#07793c;}.cls-76{fill:url(#radial-gradient-37);}.cls-77{fill:#abadaf;}.cls-78{fill:url(#radial-gradient-38);}.cls-79{fill:url(#radial-gradient-39);}.cls-80{fill:#a8abad;}.cls-81{fill:url(#radial-gradient-40);}.cls-82{fill:url(#radial-gradient-41);}.cls-83{fill:#a5a7aa;}.cls-84{fill:url(#radial-gradient-42);}.cls-85{fill:url(#radial-gradient-43);}.cls-86{fill:url(#radial-gradient-44);}</style><radialGradient id="radial-gradient" cx="600" cy="600" r="678.61" gradientUnits="userSpaceOnUse"><stop offset="0.01" stop-color="#fff"/><stop offset="1" stop-color="#e6e7e8"/></radialGradient><radialGradient id="radial-gradient-2" cx="437.98" cy="470.05" r="3.32" gradientTransform="matrix(178.18, 0, 0, -178.18, -77444.09, 84346.43)" gradientUnits="userSpaceOnUse"><stop offset="0" stop-color="#fff"/><stop offset="1" stop-color="#e6e7e8"/></radialGradient><radialGradient id="radial-gradient-3" cx="437.98" cy="470.05" r="3.31" gradientTransform="matrix(178.18, 0, 0, -178.18, -77444.09, 84346.43)" gradientUnits="userSpaceOnUse"><stop offset="0" stop-color="#fcfcfc"/><stop offset="1" stop-color="#e5e6e7"/></radialGradient><radialGradient id="radial-gradient-4" cx="437.98" cy="470.05" r="3.31" gradientTransform="matrix(178.18, 0, 0, -178.18, -77444.09, 84346.43)" gradientUnits="userSpaceOnUse"><stop offset="0" stop-color="#fbfbfb"/><stop offset="1" stop-color="#e4e5e6"/></radialGradient><radialGradient id="radial-gradient-5" cx="437.98" cy="470.04" r="3.31" gradientTransform="matrix(178.18, 0, 0, -178.18, -77444.09, 84346.43)" gradientUnits="userSpaceOnUse"><stop offset="0" stop-color="#f9fafa"/><stop offset="1" stop-color="#e3e4e5"/></radialGradient><radialGradient id="radial-gradient-6" cx="437.98" cy="470.05" r="3.31" gradientTransform="matrix(178.18, 0, 0, -178.18, -77444.09, 84346.43)" gradientUnits="userSpaceOnUse"><stop offset="0" stop-color="#f8f8f9"/><stop offset="1" stop-color="#e3e4e5"/></radialGradient><radialGradient id="radial-gradient-7" cx="437.98" cy="470.04" r="3.31" gradientTransform="matrix(178.18, 0, 0, -178.18, -77444.09, 84346.43)" gradientUnits="userSpaceOnUse"><stop offset="0" stop-color="#f7f7f8"/><stop offset="1" stop-color="#e2e3e4"/></radialGradient><radialGradient id="radial-gradient-8" cx="437.98" cy="470.04" r="3.31" gradientTransform="matrix(178.18, 0, 0, -178.18, -77444.09, 84346.43)" gradientUnits="userSpaceOnUse"><stop offset="0" stop-color="#f6f6f7"/><stop offset="0.1" stop-color="#f4f4f5"/><stop offset="1" stop-color="#e2e3e4"/></radialGradient><radialGradient id="radial-gradient-9" cx="437.98" cy="470.04" r="3.31" gradientTransform="matrix(178.18, 0, 0, -178.18, -77444.09, 84346.43)" gradientUnits="userSpaceOnUse"><stop offset="0" stop-color="#f5f5f6"/><stop offset="1" stop-color="#e0e1e2"/></radialGradient><radialGradient id="radial-gradient-10" cx="437.98" cy="470.04" r="3.31" gradientTransform="matrix(178.18, 0, 0, -178.18, -77444.09, 84346.43)" gradientUnits="userSpaceOnUse"><stop offset="0" stop-color="#f3f4f4"/><stop offset="1" stop-color="#dfe0e1"/></radialGradient><radialGradient id="radial-gradient-11" cx="437.98" cy="470.05" r="3.31" gradientTransform="matrix(178.18, 0, 0, -178.18, -77444.09, 84346.43)" gradientUnits="userSpaceOnUse"><stop offset="0" stop-color="#f2f3f3"/><stop offset="1" stop-color="#dedfe1"/></radialGradient><radialGradient id="radial-gradient-12" cx="437.98" cy="470.05" r="3.31" gradientTransform="matrix(178.18, 0, 0, -178.18, -77444.09, 84346.43)" gradientUnits="userSpaceOnUse"><stop offset="0" stop-color="#f1f1f2"/><stop offset="1" stop-color="#dddfe0"/></radialGradient><radialGradient id="radial-gradient-13" cx="437.98" cy="470.05" r="3.31" gradientTransform="matrix(178.18, 0, 0, -178.18, -77444.09, 84346.43)" gradientUnits="userSpaceOnUse"><stop offset="0" stop-color="#f0f0f1"/><stop offset="1" stop-color="#dcddde"/></radialGradient><radialGradient id="radial-gradient-14" cx="437.98" cy="470.04" r="3.31" gradientTransform="matrix(178.18, 0, 0, -178.18, -77444.09, 84346.43)" gradientUnits="userSpaceOnUse"><stop offset="0" stop-color="#eeefef"/><stop offset="1" stop-color="#dadbdd"/></radialGradient><radialGradient id="radial-gradient-15" cx="437.98" cy="470.05" r="3.31" gradientTransform="matrix(178.18, 0, 0, -178.18, -77444.09, 84346.43)" gradientUnits="userSpaceOnUse"><stop offset="0" stop-color="#ededee"/><stop offset="1" stop-color="#d9dbdc"/></radialGradient><radialGradient id="radial-gradient-16" cx="437.98" cy="470.04" r="3.31" gradientTransform="matrix(178.18, 0, 0, -178.18, -77444.09, 84346.43)" gradientUnits="userSpaceOnUse"><stop offset="0" stop-color="#ebecec"/><stop offset="1" stop-color="#d8d9da"/></radialGradient><radialGradient id="radial-gradient-17" cx="437.98" cy="470.04" r="3.31" gradientTransform="matrix(178.18, 0, 0, -178.18, -77444.09, 84346.43)" gradientUnits="userSpaceOnUse"><stop offset="0" stop-color="#e9eaeb"/><stop offset="1" stop-color="#d6d7d9"/></radialGradient><radialGradient id="radial-gradient-18" cx="437.98" cy="470.04" r="3.31" gradientTransform="matrix(178.18, 0, 0, -178.18, -77444.09, 84346.43)" gradientUnits="userSpaceOnUse"><stop offset="0" stop-color="#e8e8e9"/><stop offset="1" stop-color="#d4d6d7"/></radialGradient><radialGradient id="radial-gradient-19" cx="437.98" cy="470.05" r="3.31" gradientTransform="matrix(178.18, 0, 0, -178.18, -77444.09, 84346.43)" gradientUnits="userSpaceOnUse"><stop offset="0" stop-color="#e6e7e8"/><stop offset="1" stop-color="#d3d4d6"/></radialGradient><radialGradient id="radial-gradient-20" cx="437.98" cy="470.05" r="3.31" gradientTransform="matrix(178.18, 0, 0, -178.18, -77444.09, 84346.43)" gradientUnits="userSpaceOnUse"><stop offset="0" stop-color="#e4e5e6"/><stop offset="1" stop-color="#d2d3d5"/></radialGradient><radialGradient id="radial-gradient-21" cx="437.98" cy="470.05" r="3.32" gradientTransform="matrix(178.18, 0, 0, -178.18, -77444.09, 84346.43)" gradientUnits="userSpaceOnUse"><stop offset="0" stop-color="#e2e3e4"/><stop offset="1" stop-color="#d0d2d3"/></radialGradient><radialGradient id="radial-gradient-22" cx="437.98" cy="470.05" r="3.32" gradientTransform="matrix(178.18, 0, 0, -178.18, -77444.09, 84346.43)" gradientUnits="userSpaceOnUse"><stop offset="0" stop-color="#e0e1e2"/><stop offset="1" stop-color="#cecfd1"/></radialGradient><radialGradient id="radial-gradient-23" cx="437.98" cy="470.04" r="3.3" gradientTransform="matrix(178.18, 0, 0, -178.18, -77444.09, 84346.43)" gradientUnits="userSpaceOnUse"><stop offset="0" stop-color="#dedfe1"/><stop offset="1" stop-color="#cccecf"/></radialGradient><radialGradient id="radial-gradient-24" cx="437.98" cy="470.05" r="3.32" gradientTransform="matrix(178.18, 0, 0, -178.18, -77444.09, 84346.43)" gradientUnits="userSpaceOnUse"><stop offset="0" stop-color="#dcddde"/><stop offset="1" stop-color="#caccce"/></radialGradient><radialGradient id="radial-gradient-25" cx="437.98" cy="470.05" r="3.33" gradientTransform="matrix(178.18, 0, 0, -178.18, -77444.09, 84346.43)" gradientUnits="userSpaceOnUse"><stop offset="0" stop-color="#dadbdd"/><stop offset="1" stop-color="#c8cacb"/></radialGradient><radialGradient id="radial-gradient-26" cx="437.98" cy="470.04" r="3.3" gradientTransform="matrix(178.18, 0, 0, -178.18, -77444.09, 84346.43)" gradientUnits="userSpaceOnUse"><stop offset="0" stop-color="#d7d8da"/><stop offset="1" stop-color="#c6c8ca"/></radialGradient><radialGradient id="radial-gradient-27" cx="437.98" cy="470.06" r="3.33" gradientTransform="matrix(178.18, 0, 0, -178.18, -77444.09, 84346.43)" gradientUnits="userSpaceOnUse"><stop offset="0" stop-color="#d5d6d8"/><stop offset="1" stop-color="#c4c5c7"/></radialGradient><radialGradient id="radial-gradient-28" cx="437.98" cy="470.04" r="3.3" gradientTransform="matrix(178.18, 0, 0, -178.18, -77444.09, 84346.43)" gradientUnits="userSpaceOnUse"><stop offset="0" stop-color="#d3d4d6"/><stop offset="1" stop-color="#c1c3c5"/></radialGradient><radialGradient id="radial-gradient-29" cx="437.98" cy="470.04" r="3.31" gradientTransform="matrix(178.18, 0, 0, -178.18, -77444.09, 84346.43)" gradientUnits="userSpaceOnUse"><stop offset="0" stop-color="#d0d2d3"/><stop offset="1" stop-color="#c0c1c3"/></radialGradient><radialGradient id="radial-gradient-30" cx="437.98" cy="470.04" r="3.31" gradientTransform="matrix(178.18, 0, 0, -178.18, -77444.09, 84346.43)" gradientUnits="userSpaceOnUse"><stop offset="0" stop-color="#cecfd1"/><stop offset="1" stop-color="#bdbfc1"/></radialGradient><radialGradient id="radial-gradient-31" cx="437.98" cy="470.04" r="3.3" gradientTransform="matrix(178.18, 0, 0, -178.18, -77444.09, 84346.43)" gradientUnits="userSpaceOnUse"><stop offset="0" stop-color="#cbcdcf"/><stop offset="1" stop-color="#bbbdbf"/></radialGradient><radialGradient id="radial-gradient-32" cx="437.98" cy="470.04" r="3.3" gradientTransform="matrix(178.18, 0, 0, -178.18, -77444.09, 84346.43)" gradientUnits="userSpaceOnUse"><stop offset="0" stop-color="#c8cacb"/><stop offset="1" stop-color="#b8babc"/></radialGradient><radialGradient id="radial-gradient-33" cx="437.98" cy="470.04" r="3.29" gradientTransform="matrix(178.18, 0, 0, -178.18, -77444.09, 84346.43)" gradientUnits="userSpaceOnUse"><stop offset="0" stop-color="#c5c7c9"/><stop offset="1" stop-color="#b6b8bb"/></radialGradient><radialGradient id="radial-gradient-34" cx="437.98" cy="470.06" r="3.34" gradientTransform="matrix(178.18, 0, 0, -178.18, -77444.09, 84346.43)" gradientUnits="userSpaceOnUse"><stop offset="0" stop-color="#c2c4c6"/><stop offset="1" stop-color="#b3b5b7"/></radialGradient><radialGradient id="radial-gradient-35" cx="437.98" cy="470.05" r="3.33" gradientTransform="matrix(178.18, 0, 0, -178.18, -77444.09, 84346.43)" gradientUnits="userSpaceOnUse"><stop offset="0" stop-color="#c0c1c3"/><stop offset="1" stop-color="#b1b3b6"/></radialGradient><radialGradient id="radial-gradient-36" cx="437.98" cy="470.04" r="3.3" gradientTransform="matrix(178.18, 0, 0, -178.18, -77444.09, 84346.43)" gradientUnits="userSpaceOnUse"><stop offset="0" stop-color="#bdbfc1"/><stop offset="1" stop-color="#aeb0b3"/></radialGradient><radialGradient id="radial-gradient-37" cx="437.98" cy="470.03" r="3.24" gradientTransform="matrix(178.18, 0, 0, -178.18, -77444.09, 84346.43)" gradientUnits="userSpaceOnUse"><stop offset="0" stop-color="#babcbe"/><stop offset="1" stop-color="#abadaf"/></radialGradient><radialGradient id="radial-gradient-38" cx="437.98" cy="470.06" r="3.36" xlink:href="#radial-gradient-37"/><radialGradient id="radial-gradient-39" cx="437.98" cy="470.01" r="3.07" gradientTransform="matrix(178.18, 0, 0, -178.18, -77444.09, 84346.43)" gradientUnits="userSpaceOnUse"><stop offset="0" stop-color="#b6b8bb"/><stop offset="1" stop-color="#a8abad"/></radialGradient><radialGradient id="radial-gradient-40" cx="437.98" cy="470.03" r="3.26" xlink:href="#radial-gradient-39"/><radialGradient id="radial-gradient-41" cx="437.97" cy="470.1" r="3.64" gradientTransform="matrix(178.18, 0, 0, -178.18, -77444.09, 84346.43)" gradientUnits="userSpaceOnUse"><stop offset="0" stop-color="#b3b5b7"/><stop offset="1" stop-color="#a5a7aa"/></radialGradient><radialGradient id="radial-gradient-42" cx="437.94" cy="470.11" r="3.72" xlink:href="#radial-gradient-41"/><radialGradient id="radial-gradient-43" cx="437.98" cy="470.01" r="3.11" xlink:href="#radial-gradient-41"/><radialGradient id="radial-gradient-44" cx="437.98" cy="469.54" r="1.2" gradientTransform="matrix(178.18, 0, 0, -178.18, -77444.09, 84346.43)" gradientUnits="userSpaceOnUse"><stop offset="0" stop-color="#b1b3b5"/><stop offset="1" stop-color="#a4a6a8"/></radialGradient></defs><title>logo</title><rect class="cls-1" width="1200" height="1200"/><polygon class="cls-2" points="616.48 432.68 665.74 481.94 616.48 531.21 616.48 432.68"/><polygon class="cls-2" points="616.48 432.68 616.48 531.21 567.21 481.95 616.48 432.68"/><polygon class="cls-2" points="616.48 531.21 567.22 580.48 517.95 531.22 616.48 531.21"/><polygon class="cls-2" points="616.48 531.21 517.95 531.22 567.22 481.95 616.48 531.21"/><polygon class="cls-2" points="517.95 629.74 468.69 580.47 517.95 531.21 517.95 629.74"/><polygon class="cls-2" points="517.96 629.75 567.22 580.48 616.49 629.75 517.96 629.75"/><polygon class="cls-2" points="517.95 629.74 517.95 531.21 567.22 580.47 517.95 629.74"/><polygon class="cls-2" points="419.42 531.22 468.69 481.95 517.95 531.21 419.42 531.22"/><polygon class="cls-2" points="567.22 383.44 517.96 334.18 567.21 284.91 567.22 383.44"/><polygon class="cls-2" points="468.69 383.44 517.95 334.18 567.22 383.44 468.69 383.44"/><polygon class="cls-2" points="468.69 383.44 567.22 383.44 517.96 432.7 468.69 383.44"/><polygon class="cls-2" points="468.69 383.43 517.95 432.69 468.69 481.96 468.69 383.43"/><polygon class="cls-2" points="468.69 383.43 468.69 481.96 419.42 432.7 468.69 383.43"/><polygon class="cls-2" points="419.42 432.7 468.69 481.96 419.42 531.23 419.42 432.7"/><polygon class="cls-2" points="419.43 531.23 517.95 531.22 468.69 580.47 419.43 531.23"/><polyline class="cls-2" points="616.48 629.74 567.22 679.01 517.96 629.74 616.48 629.74"/><polygon class="cls-2" points="715.01 531.23 813.53 531.23 764.27 580.49 715.01 531.23"/><polygon class="cls-2" points="665.74 580.49 715 531.22 764.27 580.48 665.74 580.49"/><polygon class="cls-2" points="665.74 580.49 764.27 580.48 715 629.75 665.74 580.49"/><polyline class="cls-2" points="665.75 679 616.48 629.74 665.75 580.47 665.75 679"/><polyline class="cls-2" points="665.75 679 665.75 580.47 715.01 629.74 665.75 679"/><polyline class="cls-2" points="665.75 679.01 567.22 679.01 616.48 629.74 665.75 679.01"/><polygon class="cls-3" points="616.48 435.25 665.74 484.51 616.48 533.78 616.48 435.25"/><polygon class="cls-4" points="616.48 435.25 616.48 533.78 567.21 484.52 616.48 435.25"/><polygon class="cls-4" points="616.48 533.78 567.22 583.05 517.95 533.79 616.48 533.78"/><polygon class="cls-5" points="616.48 533.78 517.95 533.79 567.22 484.52 616.48 533.78"/><polygon class="cls-4" points="517.95 632.31 468.69 583.05 517.95 533.78 517.95 632.31"/><polygon class="cls-3" points="517.96 632.32 567.22 583.05 616.49 632.32 517.96 632.32"/><polygon class="cls-3" points="517.95 632.31 517.95 533.78 567.22 583.05 517.95 632.31"/><polygon class="cls-4" points="419.42 533.79 468.69 484.52 517.95 533.79 419.42 533.79"/><polygon class="cls-5" points="567.22 386.01 517.96 336.75 567.21 287.48 567.22 386.01"/><polygon class="cls-3" points="468.69 386.01 517.95 336.75 567.22 386.01 468.69 386.01"/><polygon class="cls-4" points="468.69 386.01 567.22 386.01 517.96 435.27 468.69 386.01"/><polygon class="cls-3" points="468.69 386 517.95 435.26 468.69 484.54 468.69 386"/><polygon class="cls-4" points="468.69 386 468.69 484.54 419.42 435.27 468.69 386"/><polygon class="cls-5" points="419.42 435.27 468.69 484.53 419.42 533.8 419.42 435.27"/><polygon class="cls-3" points="419.43 533.8 517.95 533.79 468.69 583.05 419.43 533.8"/><polyline class="cls-4" points="616.48 632.31 567.22 681.59 517.96 632.32 616.48 632.31"/><polygon class="cls-5" points="715.01 533.8 813.53 533.8 764.27 583.06 715.01 533.8"/><polygon class="cls-3" points="665.74 583.06 715 533.8 764.27 583.05 665.74 583.06"/><polygon class="cls-4" points="665.74 583.06 764.27 583.05 715 632.32 665.74 583.06"/><polyline class="cls-4" points="665.75 681.58 616.48 632.31 665.75 583.05 665.75 681.58"/><polyline class="cls-3" points="665.75 681.58 665.75 583.05 715.01 632.32 665.75 681.58"/><polyline class="cls-5" points="665.75 681.58 567.22 681.59 616.48 632.32 665.75 681.58"/><path class="cls-6" d="M675.85,671.48l-.15.15c94.52,1.43,164,6.2,164,11.86,0,6.8-99.93,12.31-223.19,12.31S393.3,690.29,393.3,683.49c0-5.66,69.44-10.43,164-11.86l-.15-.15c-97.1,1.44-168.59,6.32-168.59,12.13,0,6.94,102.07,12.57,228,12.57s228-5.63,228-12.57c0-5.81-71.49-10.69-168.59-12.13"/><polyline class="cls-2" points="577.57 671.23 577.57 671.23 577.42 671.38 577.42 671.38 577.57 671.23"/><polyline class="cls-2" points="655.4 671.23 655.55 671.38 655.56 671.38 655.4 671.23 655.4 671.23"/><path class="cls-4" d="M655.4,671.23l.16.15q5.13,0,10.19.12v-.16l-10.35-.11"/><path class="cls-3" d="M665.75,671.34v.16l10,.13.15-.15-10.1-.14"/><path class="cls-7" d="M616.48,671.05c-13.26,0-26.27.06-38.91.18l-.15.15c12.68-.12,25.74-.19,39.06-.19s26.38.07,39.07.19l-.15-.15c-12.65-.12-25.65-.18-38.92-.18"/><path class="cls-8" d="M675.7,671.63l-.16.16c91.93,1.42,159.36,6.07,159.36,11.59,0,6.65-97.8,12-218.42,12s-218.41-5.39-218.41-12c0-5.52,67.42-10.17,159.35-11.59l-.16-.16c-94.52,1.43-164,6.2-164,11.86,0,6.8,99.93,12.31,223.18,12.31s223.19-5.51,223.19-12.31c0-5.66-69.45-10.43-164-11.86"/><polyline class="cls-9" points="577.42 671.38 577.42 671.38 577.27 671.53 577.27 671.53 577.42 671.38"/><polyline class="cls-9" points="655.55 671.38 655.7 671.53 655.71 671.53 655.56 671.38 655.55 671.38"/><path class="cls-4" d="M655.56,671.38l.15.15,10,.12v-.15q-5.06-.07-10.19-.12"/><path class="cls-3" d="M665.75,671.5v.15c3.3,0,6.55.08,9.79.14l.16-.16-10-.13"/><path class="cls-7" d="M616.48,671.19c-13.32,0-26.38.07-39.06.19l-.15.15c12.72-.12,25.83-.19,39.21-.19s26.49.07,39.22.19l-.15-.15c-12.69-.12-25.74-.19-39.07-.19"/><path class="cls-10" d="M675.54,671.79l-.15.15c89.34,1.41,154.74,5.94,154.74,11.32,0,6.51-95.66,11.78-213.65,11.78s-213.64-5.27-213.64-11.78c0-5.38,65.4-9.91,154.73-11.32l-.15-.15c-91.93,1.42-159.35,6.07-159.35,11.59,0,6.65,97.79,12,218.41,12s218.42-5.39,218.42-12c0-5.52-67.43-10.17-159.36-11.59"/><path class="cls-11" d="M577.27,671.53h0l-.15.16h0l.15-.16"/><polyline class="cls-11" points="655.7 671.53 655.85 671.69 655.86 671.69 655.71 671.53 655.7 671.53"/><path class="cls-4" d="M655.71,671.53l.15.16,9.89.11v-.15l-10-.12"/><path class="cls-3" d="M665.75,671.65v.15l9.64.14.15-.15c-3.24-.06-6.49-.1-9.79-.14"/><path class="cls-7" d="M616.48,671.34c-13.38,0-26.49.07-39.21.19l-.15.16c12.75-.14,25.92-.2,39.36-.2s26.61.06,39.37.2l-.15-.16c-12.73-.12-25.83-.19-39.22-.19"/><path class="cls-12" d="M675.39,671.94l-.16.15c86.76,1.4,150.12,5.82,150.12,11,0,6.36-93.52,11.52-208.87,11.52s-208.87-5.16-208.87-11.52c0-5.23,63.37-9.65,150.12-11l-.16-.15c-89.33,1.41-154.73,5.94-154.73,11.32,0,6.51,95.66,11.78,213.64,11.78s213.65-5.27,213.65-11.78c0-5.38-65.4-9.91-154.74-11.32"/><path class="cls-13" d="M577.12,671.69h0l-.15.15h0l.15-.15"/><path class="cls-13" d="M655.85,671.69l.15.15h0l-.15-.15h0"/><path class="cls-3" d="M665.75,671.8V672l9.48.14.16-.15-9.64-.14"/><path class="cls-7" d="M616.48,671.49c-13.44,0-26.61.06-39.36.2l-.15.15c12.79-.14,26-.21,39.51-.21s26.73.07,39.52.21l-.15-.15c-12.76-.14-25.92-.2-39.37-.2"/><path class="cls-14" d="M675.23,672.09l-.15.16c84.16,1.39,145.5,5.68,145.5,10.78,0,6.21-91.38,11.25-204.1,11.25s-204.09-5-204.09-11.25c0-5.1,61.34-9.39,145.49-10.78l-.15-.16c-86.75,1.4-150.12,5.82-150.12,11,0,6.36,93.52,11.52,208.87,11.52s208.87-5.16,208.87-11.52c0-5.23-63.36-9.65-150.12-11"/><polyline class="cls-13" points="576.97 671.84 576.97 671.84 576.81 671.99 576.81 671.99 576.97 671.84"/><path class="cls-13" d="M656,671.84l.16.15h0l-.16-.15h0"/><path class="cls-3" d="M665.75,672v.19l9.33.17.15-.19-9.48-.17"/><path class="cls-7" d="M616.48,671.63c-13.51,0-26.72.07-39.51.21l-.16.15c12.83-.14,26.1-.21,39.67-.21s26.85.07,39.68.21l-.16-.15c-12.79-.14-26-.21-39.52-.21"/><path class="cls-15" d="M675.08,672.25l-.16.15c81.56,1.38,140.89,5.56,140.89,10.51,0,6.07-89.25,11-199.33,11s-199.32-4.92-199.32-11c0-4.95,59.32-9.13,140.88-10.51l-.16-.15c-84.15,1.39-145.49,5.68-145.49,10.78,0,6.21,91.38,11.25,204.09,11.25s204.1-5,204.1-11.25c0-5.1-61.34-9.39-145.5-10.78"/><polyline class="cls-16" points="576.81 671.99 576.81 671.99 576.66 672.14 576.66 672.14 576.81 671.99"/><path class="cls-16" d="M656.16,672l.15.15h0l-.15-.15h0"/><path class="cls-3" d="M665.75,672.11v.15l9.17.14.16-.15-9.33-.14"/><path class="cls-7" d="M616.48,671.78c-13.57,0-26.84.07-39.67.21l-.15.15c12.87-.14,26.18-.21,39.82-.21s27,.07,39.83.21l-.15-.15c-12.83-.14-26.1-.21-39.68-.21"/><path class="cls-17" d="M674.92,672.4l-.15.16C753.74,673.92,811,678,811,682.79c0,5.93-87.1,10.73-194.55,10.73s-194.55-4.8-194.55-10.73c0-4.8,57.3-8.87,136.26-10.23l-.15-.16c-81.56,1.38-140.88,5.56-140.88,10.51,0,6.07,89.25,11,199.32,11s199.33-4.92,199.33-11c0-4.95-59.33-9.13-140.89-10.51"/><path class="cls-16" d="M576.66,672.14h0l-.16.16h0l.15-.16"/><polyline class="cls-16" points="656.31 672.14 656.47 672.3 656.47 672.3 656.32 672.14 656.31 672.14"/><path class="cls-3" d="M665.75,672.26v.16l9,.14.15-.16-9.17-.14"/><path class="cls-7" d="M616.48,671.93c-13.64,0-27,.07-39.82.21l-.15.16c12.9-.15,26.27-.23,40-.23s27.08.08,40,.23l-.15-.16c-12.87-.14-26.19-.21-39.83-.21"/><path class="cls-18" d="M674.77,672.56l-.16.16c76.37,1.35,131.65,5.3,131.65,9.95,0,5.78-85,10.47-189.78,10.47S426.7,688.45,426.7,682.67c0-4.65,55.28-8.6,131.65-9.95l-.16-.16c-79,1.36-136.26,5.43-136.26,10.23,0,5.93,87.11,10.73,194.55,10.73S811,688.72,811,682.79c0-4.8-57.29-8.87-136.26-10.23"/><path class="cls-19" d="M576.51,672.3h0l-.15.15h0l.16-.15"/><polyline class="cls-19" points="656.47 672.3 656.62 672.45 656.62 672.45 656.47 672.3 656.47 672.3"/><path class="cls-3" d="M665.75,672.42v.15c3,0,5.94.09,8.86.15l.16-.16-9-.14"/><path class="cls-7" d="M616.48,672.07c-13.7,0-27.07.08-40,.23l-.16.15c12.94-.15,26.37-.23,40.13-.23s27.2.08,40.14.23l-.16-.15c-12.9-.15-26.27-.23-40-.23"/><path class="cls-20" d="M674.61,672.72l-.15.15c73.77,1.34,127,5.17,127,9.69,0,5.63-82.83,10.2-185,10.2s-185-4.57-185-10.2c0-4.52,53.25-8.35,127-9.69l-.16-.15C482,674.07,426.7,678,426.7,682.67c0,5.78,85,10.47,189.78,10.47s189.78-4.69,189.78-10.47c0-4.65-55.28-8.6-131.65-9.95"/><polyline class="cls-21" points="576.35 672.45 576.35 672.45 576.2 672.61 576.2 672.61 576.35 672.45"/><polyline class="cls-21" points="656.62 672.45 656.77 672.61 656.78 672.61 656.62 672.45 656.62 672.45"/><path class="cls-3" d="M665.75,672.57v.16l8.71.14.15-.15c-2.92-.06-5.87-.1-8.86-.15"/><path class="cls-7" d="M616.48,672.22c-13.76,0-27.19.08-40.13.23l-.15.15c13-.15,26.45-.24,40.28-.24s27.32.09,40.29.24l-.15-.15c-12.94-.15-26.37-.23-40.14-.23"/><path class="cls-22" d="M674.46,672.87l-.16.16c71.17,1.33,122.42,5,122.42,9.41,0,5.49-80.7,9.94-180.24,9.94s-180.23-4.45-180.23-9.94c0-4.37,51.24-8.08,122.41-9.41l-.15-.16c-73.78,1.34-127,5.17-127,9.69,0,5.63,82.83,10.2,185,10.2s185-4.57,185-10.2c0-4.52-53.26-8.35-127-9.69"/><path class="cls-23" d="M576.2,672.6h0l-.16.16h0l.16-.16"/><polyline class="cls-23" points="656.77 672.61 656.92 672.76 656.93 672.76 656.78 672.61 656.77 672.61"/><path class="cls-3" d="M665.75,672.73v.15l8.55.15.16-.16-8.71-.14"/><path class="cls-7" d="M616.48,672.36c-13.83,0-27.31.09-40.28.24l-.16.16c13-.17,26.54-.25,40.44-.25s27.44.08,40.44.25l-.15-.16c-13-.15-26.45-.24-40.29-.24"/><path class="cls-24" d="M674.3,673l-.16.16c68.58,1.31,117.81,4.9,117.81,9.13,0,5.35-78.57,9.68-175.47,9.68S441,687.67,441,682.32c0-4.23,49.22-7.82,117.8-9.13l-.16-.16c-71.17,1.33-122.41,5-122.41,9.41,0,5.49,80.7,9.94,180.23,9.94s180.24-4.45,180.24-9.94c0-4.37-51.25-8.08-122.42-9.41"/><path class="cls-25" d="M576,672.76h0l-.15.15h0l.15-.15"/><polyline class="cls-25" points="656.92 672.76 657.08 672.91 657.09 672.91 656.93 672.76 656.92 672.76"/><path class="cls-3" d="M665.75,672.88V673l8.39.15.16-.16-8.55-.15"/><path class="cls-7" d="M616.48,672.51c-13.9,0-27.44.08-40.44.25l-.15.15c13-.17,26.62-.26,40.59-.26s27.57.09,40.6.26l-.16-.15c-13-.17-26.53-.25-40.44-.25"/><path class="cls-26" d="M674.14,673.19l-.16.15c66,1.31,113.19,4.78,113.19,8.87,0,5.19-76.42,9.41-170.69,9.41s-170.69-4.22-170.69-9.41c0-4.09,47.21-7.56,113.19-8.87l-.16-.15c-68.58,1.31-117.8,4.9-117.8,9.13,0,5.35,78.56,9.68,175.46,9.68S792,687.67,792,682.32c0-4.23-49.23-7.82-117.81-9.13"/><path class="cls-27" d="M575.89,672.91h0l-.16.16h0l.15-.16"/><path class="cls-27" d="M657.08,672.91l.16.16h0l-.15-.16h0"/><path class="cls-28" d="M666.62,673.23v.16c2.78,0,5.52.1,8.23.15l.16-.16-8.39-.15"/><path class="cls-7" d="M616.48,672.65c-14,0-27.56.09-40.59.26l-.15.16c13-.18,26.7-.27,40.74-.27s27.7.09,40.76.27l-.16-.16c-13-.17-26.62-.26-40.6-.26"/><path class="cls-29" d="M674,673.34l-.16.17c63.37,1.28,108.58,4.64,108.58,8.58,0,5-74.29,9.15-165.92,9.15s-165.91-4.1-165.91-9.15c0-3.94,45.2-7.3,108.57-8.58l-.16-.17c-66,1.31-113.19,4.78-113.19,8.87,0,5.19,76.43,9.41,170.69,9.41s170.69-4.22,170.69-9.41c0-4.09-47.21-7.56-113.19-8.87"/><polyline class="cls-30" points="575.74 673.07 575.73 673.07 575.58 673.23 575.58 673.23 575.74 673.07"/><path class="cls-30" d="M657.24,673.07l.15.16h0l-.16-.16h0"/><path class="cls-3" d="M665.75,673.2v.16c2.72,0,5.41.1,8.07.15l.16-.17-8.23-.14"/><path class="cls-7" d="M616.48,672.8c-14,0-27.69.09-40.74.27l-.16.16c13.08-.19,26.79-.28,40.9-.28s27.82.09,40.91.28l-.15-.16c-13.06-.18-26.71-.27-40.76-.27"/><path class="cls-31" d="M673.82,673.51l-.16.16c60.77,1.27,104,4.51,104,8.3,0,4.91-72.15,8.89-161.15,8.89s-161.14-4-161.14-8.89c0-3.79,43.19-7,104-8.3l-.16-.16c-63.37,1.28-108.57,4.64-108.57,8.58,0,5,74.29,9.15,165.91,9.15s165.92-4.1,165.92-9.15c0-3.94-45.21-7.3-108.58-8.58"/><polyline class="cls-32" points="575.58 673.23 575.58 673.23 575.42 673.38 575.42 673.38 575.58 673.23"/><polyline class="cls-32" points="657.39 673.23 657.55 673.38 657.56 673.38 657.4 673.23 657.39 673.23"/><path class="cls-3" d="M665.75,673.36v.16c2.67,0,5.3.09,7.91.15l.16-.16c-2.66,0-5.35-.11-8.07-.15"/><path class="cls-7" d="M616.48,673c-14.11,0-27.82.09-40.9.28l-.16.15c13.11-.19,26.87-.29,41.06-.29s28,.1,41.07.29l-.16-.15C644.3,673,630.6,673,616.48,673"/><path class="cls-33" d="M673.66,673.67l-.16.16c58.16,1.26,99.36,4.37,99.36,8,0,4.76-70,8.62-156.38,8.62s-156.37-3.86-156.37-8.62c0-3.66,41.19-6.77,99.35-8l-.16-.16c-60.77,1.27-104,4.51-104,8.3,0,4.91,72.15,8.89,161.14,8.89s161.15-4,161.15-8.89c0-3.79-43.2-7-104-8.3"/><polyline class="cls-34" points="575.42 673.38 575.42 673.38 575.26 673.54 575.26 673.54 575.42 673.38"/><path class="cls-34" d="M657.55,673.38l.16.16h0l-.16-.16h0"/><path class="cls-3" d="M665.75,673.52v.16c2.61,0,5.2.1,7.75.15l.16-.16c-2.61-.06-5.24-.11-7.91-.15"/><path class="cls-7" d="M616.48,673.09c-14.19,0-28,.1-41.06.29l-.16.16c13.14-.2,27-.3,41.22-.3s28.1.1,41.23.3l-.16-.16c-13.11-.19-26.88-.29-41.07-.29"/><path class="cls-35" d="M673.5,673.83l-.16.16c55.55,1.24,94.74,4.24,94.74,7.75,0,4.61-67.88,8.36-151.6,8.36s-151.6-3.75-151.6-8.36c0-3.51,39.19-6.51,94.74-7.75l-.16-.16c-58.16,1.26-99.35,4.37-99.35,8,0,4.76,70,8.62,156.37,8.62s156.38-3.86,156.38-8.62c0-3.66-41.2-6.77-99.36-8"/><polyline class="cls-36" points="575.26 673.54 575.26 673.54 575.1 673.7 575.11 673.7 575.26 673.54"/><path class="cls-36" d="M657.71,673.54l.16.16h0l-.15-.16h0"/><path class="cls-3" d="M665.75,673.68v.15l7.59.16.16-.16c-2.55-.05-5.14-.11-7.75-.15"/><path class="cls-7" d="M616.48,673.24c-14.26,0-28.08.1-41.22.3l-.15.16c13.15-.21,27-.32,41.37-.32s28.23.11,41.39.32l-.16-.16c-13.13-.2-27-.3-41.23-.3"/><path class="cls-37" d="M673.34,674l-.17.16c53,1.23,90.14,4.11,90.14,7.47,0,4.47-65.74,8.1-146.83,8.1s-146.82-3.63-146.82-8.1c0-3.36,37.19-6.24,90.13-7.47l-.17-.16c-55.55,1.24-94.74,4.24-94.74,7.75,0,4.61,67.88,8.36,151.6,8.36s151.6-3.75,151.6-8.36c0-3.51-39.19-6.51-94.74-7.75"/><polyline class="cls-38" points="575.11 673.7 575.1 673.7 574.94 673.86 574.95 673.86 575.11 673.7"/><path class="cls-38" d="M657.87,673.7l.15.16h0l-.16-.16h0"/><path class="cls-3" d="M665.75,673.83V674l7.42.15.17-.16-7.59-.16"/><path class="cls-7" d="M616.48,673.38c-14.34,0-28.22.11-41.37.32l-.16.16c13.17-.22,27.11-.33,41.53-.33s28.37.11,41.54.33l-.15-.16c-13.16-.21-27-.32-41.39-.32"/><path class="cls-39" d="M673.17,674.15l-.16.17c50.33,1.21,85.53,4,85.53,7.19,0,4.32-63.61,7.83-142.06,7.83s-142-3.51-142-7.83c0-3.22,35.2-6,85.52-7.19l-.16-.17c-52.94,1.23-90.13,4.11-90.13,7.47,0,4.47,65.74,8.1,146.82,8.1s146.83-3.63,146.83-8.1c0-3.36-37.19-6.24-90.14-7.47"/><polyline class="cls-40" points="574.95 673.86 574.94 673.86 574.78 674.02 574.78 674.02 574.95 673.86"/><path class="cls-40" d="M658,673.86l.17.16h0l-.16-.16h0"/><path class="cls-3" d="M665.75,674v.16l7.26.16.16-.17-7.42-.15"/><path class="cls-7" d="M616.48,673.53c-14.42,0-28.36.11-41.53.33l-.16.16c13.18-.22,27.18-.34,41.69-.34s28.52.12,41.71.34l-.17-.16c-13.17-.22-27.11-.33-41.54-.33"/><path class="cls-41" d="M673,674.32l-.17.17c47.71,1.18,80.93,3.82,80.93,6.9,0,4.18-61.47,7.57-137.29,7.57s-137.28-3.39-137.28-7.57c0-3.08,33.21-5.72,80.92-6.9l-.17-.17c-50.32,1.21-85.52,4-85.52,7.19,0,4.32,63.61,7.83,142.05,7.83s142.06-3.51,142.06-7.83c0-3.22-35.2-6-85.53-7.19"/><path class="cls-42" d="M574.79,674h0l-.17.16h0l.17-.16"/><polyline class="cls-42" points="658.18 674.02 658.35 674.18 658.35 674.18 658.19 674.02 658.18 674.02"/><path class="cls-3" d="M665.75,674.16v.16l7.09.17.17-.17-7.26-.16"/><path class="cls-7" d="M616.48,673.68c-14.51,0-28.51.12-41.69.34l-.17.16c13.2-.23,27.27-.36,41.86-.36s28.67.13,41.87.36l-.16-.16c-13.19-.22-27.19-.34-41.71-.34"/><path class="cls-43" d="M672.84,674.49l-.17.16c45.1,1.17,76.32,3.69,76.32,6.62,0,4-59.33,7.31-132.51,7.31S484,685.31,484,681.27c0-2.93,31.23-5.45,76.32-6.62l-.17-.16c-47.71,1.18-80.92,3.82-80.92,6.9,0,4.18,61.47,7.57,137.28,7.57s137.29-3.39,137.29-7.57c0-3.08-33.22-5.72-80.93-6.9"/><path class="cls-44" d="M574.62,674.18h0l-.16.16h0l.16-.16"/><polyline class="cls-44" points="658.35 674.18 658.51 674.34 658.52 674.34 658.35 674.18 658.35 674.18"/><path class="cls-3" d="M665.75,674.32v.17l6.92.16.17-.16-7.09-.17"/><path class="cls-7" d="M616.48,673.82c-14.59,0-28.66.13-41.86.36l-.16.16c13.21-.24,27.34-.37,42-.37s28.82.13,42,.37l-.16-.16c-13.2-.23-27.27-.36-41.87-.36"/><path class="cls-45" d="M672.67,674.65l-.17.18c42.47,1.14,71.72,3.54,71.72,6.32,0,3.89-57.19,7.05-127.74,7.05S488.75,685,488.75,681.15c0-2.78,29.24-5.18,71.71-6.32l-.17-.18c-45.09,1.17-76.32,3.69-76.32,6.62,0,4,59.34,7.31,132.51,7.31S749,685.31,749,681.27c0-2.93-31.22-5.45-76.32-6.62"/><path class="cls-46" d="M574.46,674.34h0l-.16.17h0l.16-.17"/><path class="cls-46" d="M658.51,674.34l.16.17h0l-.16-.17h0"/><path class="cls-3" d="M665.75,674.49v.17c2.29.05,4.54.1,6.75.17l.17-.18-6.92-.16"/><path class="cls-7" d="M616.48,674c-14.68,0-28.81.13-42,.37l-.16.17c13.2-.26,27.4-.39,42.18-.39s29,.13,42.19.39l-.16-.17c-13.21-.24-27.34-.37-42-.37"/><path class="cls-47" d="M672.5,674.83l-.17.17c39.84,1.12,67.12,3.4,67.12,6,0,3.74-55.06,6.78-123,6.78s-123-3-123-6.78c0-2.64,27.28-4.92,67.11-6l-.17-.17c-42.47,1.14-71.71,3.54-71.71,6.32,0,3.89,57.19,7.05,127.73,7.05s127.74-3.16,127.74-7.05c0-2.78-29.25-5.18-71.72-6.32"/><path class="cls-48" d="M574.3,674.51h0l-.17.16h0l.17-.16"/><path class="cls-48" d="M658.67,674.51l.17.16h0l-.17-.16h0"/><path class="cls-3" d="M665.75,674.66v.17l6.58.17.17-.17c-2.21-.07-4.46-.12-6.75-.17"/><path class="cls-7" d="M616.48,674.12c-14.78,0-29,.13-42.18.39l-.17.16c13.21-.26,27.47-.41,42.35-.41s29.16.15,42.36.41l-.17-.16c-13.2-.26-27.4-.39-42.19-.39"/><path class="cls-49" d="M672.33,675l-.17.17c37.21,1.1,62.52,3.26,62.52,5.75,0,3.6-52.93,6.52-118.2,6.52s-118.19-2.92-118.19-6.52c0-2.49,25.31-4.65,62.52-5.75l-.18-.17c-39.83,1.12-67.11,3.4-67.11,6,0,3.74,55.06,6.78,123,6.78s123-3,123-6.78c0-2.64-27.28-4.92-67.12-6"/><polyline class="cls-50" points="574.13 674.67 574.13 674.67 573.96 674.84 573.96 674.84 574.13 674.67"/><path class="cls-50" d="M658.84,674.67l.17.17h0l-.16-.17h0"/><path class="cls-3" d="M665.75,674.83V675l6.41.17.17-.17-6.58-.17"/><path class="cls-7" d="M616.48,674.26c-14.88,0-29.14.15-42.35.41l-.17.17c13.2-.28,27.53-.43,42.52-.43s29.33.15,42.53.43l-.17-.17c-13.2-.26-27.47-.41-42.36-.41"/><path class="cls-51" d="M672.16,675.17l-.18.18c34.57,1.07,57.92,3.11,57.92,5.45,0,3.46-50.78,6.26-113.42,6.26s-113.42-2.8-113.42-6.26c0-2.34,23.36-4.38,57.92-5.45l-.17-.18c-37.21,1.1-62.52,3.26-62.52,5.75,0,3.6,52.92,6.52,118.19,6.52s118.2-2.92,118.2-6.52c0-2.49-25.31-4.65-62.52-5.75"/><polyline class="cls-52" points="573.96 674.84 573.96 674.84 573.79 675.01 573.79 675.01 573.96 674.84"/><path class="cls-52" d="M659,674.84l.17.17h0l-.18-.17h0"/><path class="cls-3" d="M665.75,675v.17l6.23.18.18-.18-6.41-.17"/><path class="cls-7" d="M616.48,674.41c-15,0-29.32.15-42.52.43l-.17.17c13.18-.3,27.59-.46,42.69-.46s29.52.16,42.7.46l-.17-.17c-13.2-.28-27.54-.43-42.53-.43"/><path class="cls-53" d="M672,675.35l-.18.18c31.92,1,53.33,3,53.33,5.16,0,3.31-48.65,6-108.65,6s-108.64-2.68-108.64-6c0-2.2,21.4-4.12,53.32-5.16l-.18-.18c-34.56,1.07-57.92,3.11-57.92,5.45,0,3.46,50.79,6.26,113.42,6.26s113.42-2.8,113.42-6.26c0-2.34-23.35-4.38-57.92-5.45"/><polyline class="cls-54" points="573.79 675.01 573.79 675.01 573.62 675.18 573.62 675.18 573.79 675.01"/><path class="cls-54" d="M659.18,675l.17.17h0l-.17-.17h0"/><path class="cls-3" d="M665.75,675.17v.18l6,.18.18-.18-6.23-.18"/><path class="cls-7" d="M616.48,674.55c-15.1,0-29.51.16-42.69.46l-.17.17c13.15-.31,27.64-.48,42.86-.48s29.72.17,42.87.48l-.17-.17c-13.18-.3-27.6-.46-42.7-.46"/><path class="cls-55" d="M671.8,675.53l-.19.19c29.28,1,48.75,2.8,48.75,4.85,0,3.16-46.51,5.73-103.88,5.73s-103.87-2.57-103.87-5.73c0-2.05,19.46-3.84,48.74-4.85l-.19-.19c-31.92,1-53.32,3-53.32,5.16,0,3.31,48.64,6,108.64,6s108.65-2.68,108.65-6c0-2.2-21.41-4.12-53.33-5.16"/><polyline class="cls-56" points="573.62 675.18 573.62 675.18 573.45 675.36 573.45 675.36 573.62 675.18"/><polyline class="cls-56" points="659.35 675.18 659.52 675.36 659.53 675.36 659.36 675.18 659.35 675.18"/><path class="cls-3" d="M665.75,675.35v.18l5.86.19.19-.19-6-.18"/><path class="cls-7" d="M616.48,674.7c-15.22,0-29.71.17-42.86.48l-.17.18c13.11-.33,27.68-.52,43-.52s29.93.19,43,.52l-.18-.18c-13.15-.31-27.64-.48-42.87-.48"/><path class="cls-57" d="M671.61,675.72l-.19.18c26.63,1,44.17,2.66,44.17,4.55,0,3-44.38,5.47-99.11,5.47s-99.1-2.45-99.1-5.47c0-1.89,17.54-3.57,44.16-4.55l-.19-.18c-29.28,1-48.74,2.8-48.74,4.85,0,3.16,46.51,5.73,103.87,5.73s103.88-2.57,103.88-5.73c0-2.05-19.47-3.84-48.75-4.85"/><polyline class="cls-58" points="573.45 675.36 573.45 675.36 573.27 675.53 573.27 675.53 573.45 675.36"/><polyline class="cls-58" points="659.52 675.36 659.7 675.53 659.71 675.53 659.53 675.36 659.52 675.36"/><path class="cls-3" d="M665.75,675.53v.18l5.67.19.19-.18-5.86-.19"/><path class="cls-7" d="M616.48,674.84c-15.35,0-29.92.19-43,.52l-.18.18c13.06-.35,27.72-.55,43.21-.55s30.16.2,43.22.55l-.17-.18c-13.12-.33-27.69-.52-43-.52"/><path class="cls-59" d="M671.42,675.9l-.19.2c24,.94,39.59,2.49,39.59,4.23,0,2.88-42.24,5.21-94.34,5.21s-94.33-2.33-94.33-5.21c0-1.74,15.62-3.29,39.58-4.23l-.19-.2c-26.62,1-44.16,2.66-44.16,4.55,0,3,44.38,5.47,99.1,5.47s99.11-2.45,99.11-5.47c0-1.89-17.54-3.57-44.17-4.55"/><polyline class="cls-60" points="573.27 675.53 573.27 675.53 573.09 675.72 573.09 675.72 573.27 675.53"/><polyline class="cls-60" points="659.7 675.53 659.88 675.72 659.89 675.72 659.71 675.53 659.7 675.53"/><path class="cls-3" d="M665.75,675.71v.19l5.48.2.19-.2-5.67-.19"/><path class="cls-7" d="M616.48,675c-15.49,0-30.15.2-43.21.55l-.18.18c13-.38,27.74-.59,43.39-.59s30.41.21,43.4.59l-.18-.18c-13.06-.35-27.73-.55-43.22-.55"/><path class="cls-61" d="M671.23,676.1l-.21.2c21.3.9,35,2.32,35,3.92,0,2.72-40.1,4.94-89.56,4.94s-89.55-2.22-89.55-4.94c0-1.6,13.72-3,35-3.92l-.21-.2c-24,.94-39.58,2.49-39.58,4.23,0,2.88,42.24,5.21,94.33,5.21s94.34-2.33,94.34-5.21c0-1.74-15.63-3.29-39.59-4.23"/><polyline class="cls-62" points="573.09 675.72 573.09 675.72 572.9 675.91 572.9 675.91 573.09 675.72"/><polyline class="cls-62" points="659.88 675.72 660.08 675.91 660.08 675.91 659.89 675.72 659.88 675.72"/><path class="cls-3" d="M665.75,675.9v.19l5.27.21.21-.2-5.48-.2"/><path class="cls-7" d="M616.48,675.13c-15.65,0-30.4.21-43.39.59l-.19.19c12.9-.4,27.76-.63,43.58-.63s30.69.23,43.6.63l-.2-.19c-13-.38-27.75-.59-43.4-.59"/><path class="cls-63" d="M671,676.3l-.2.21c18.61.86,30.45,2.15,30.45,3.59,0,2.58-38,4.68-84.79,4.68s-84.78-2.1-84.78-4.68c0-1.44,11.84-2.73,30.45-3.59l-.21-.21c-21.29.91-35,2.32-35,3.92,0,2.72,40.1,4.94,89.55,4.94S706,682.94,706,680.22c0-1.6-13.72-3-35-3.92"/><polyline class="cls-64" points="572.9 675.91 572.9 675.91 572.71 676.1 572.71 676.1 572.9 675.91"/><polyline class="cls-64" points="660.08 675.91 660.27 676.1 660.27 676.1 660.08 675.91 660.08 675.91"/><path class="cls-3" d="M665.75,676.09v.21l5.07.21.2-.21-5.27-.21"/><path class="cls-7" d="M616.48,675.28c-15.82,0-30.68.23-43.58.63l-.19.19c12.77-.43,27.76-.67,43.77-.67s31,.24,43.79.67l-.19-.19c-12.91-.4-27.77-.63-43.6-.63"/><path class="cls-65" d="M670.82,676.51l-.23.22c15.93.81,25.91,2,25.91,3.26,0,2.43-35.83,4.41-80,4.41s-80-2-80-4.41c0-1.29,10-2.45,25.9-3.26l-.22-.22c-18.61.86-30.45,2.15-30.45,3.59,0,2.58,38,4.68,84.78,4.68s84.79-2.1,84.79-4.68c0-1.44-11.84-2.73-30.45-3.59"/><polyline class="cls-66" points="572.71 676.1 572.71 676.1 572.5 676.3 572.5 676.3 572.71 676.1"/><polyline class="cls-66" points="660.27 676.1 660.47 676.3 660.47 676.3 660.27 676.1 660.27 676.1"/><path class="cls-3" d="M665.75,676.3v.21l4.84.22.23-.22-5.07-.21"/><path class="cls-7" d="M616.48,675.43c-16,0-31,.24-43.77.67l-.21.2c12.63-.46,27.74-.73,44-.73s31.37.27,44,.73l-.2-.2c-12.79-.43-27.77-.67-43.79-.67"/><path class="cls-67" d="M670.59,676.73l-.23.24c13.22.75,21.37,1.77,21.37,2.9,0,2.29-33.7,4.15-75.25,4.15s-75.24-1.86-75.24-4.15c0-1.13,8.15-2.15,21.36-2.9l-.23-.24c-15.92.81-25.9,2-25.9,3.26,0,2.43,35.83,4.41,80,4.41s80-2,80-4.41c0-1.29-10-2.45-25.91-3.26"/><polyline class="cls-68" points="572.5 676.3 572.5 676.3 572.29 676.51 572.29 676.51 572.5 676.3"/><polyline class="cls-68" points="660.47 676.3 660.68 676.51 660.68 676.51 660.47 676.3 660.47 676.3"/><path class="cls-3" d="M665.75,676.51v.22l4.61.24.23-.24-4.84-.22"/><path class="cls-7" d="M616.48,675.57c-16.24,0-31.35.27-44,.73l-.21.21c12.41-.5,27.68-.79,44.19-.79s31.79.29,44.2.79l-.21-.21c-12.62-.46-27.74-.73-44-.73"/><path class="cls-69" d="M670.36,677l-.26.26c10.51.68,16.85,1.56,16.85,2.52,0,2.15-31.55,3.88-70.47,3.88S546,681.9,546,679.75c0-1,6.34-1.84,16.84-2.52l-.26-.26c-13.21.75-21.36,1.77-21.36,2.9,0,2.29,33.69,4.15,75.24,4.15s75.25-1.86,75.25-4.15c0-1.13-8.15-2.15-21.37-2.9"/><polyline class="cls-70" points="572.29 676.51 572.29 676.51 572.07 676.74 572.07 676.74 572.29 676.51"/><polyline class="cls-70" points="660.68 676.51 660.9 676.74 660.91 676.74 660.68 676.51 660.68 676.51"/><path class="cls-3" d="M665.75,676.73V677c1.52.08,3,.17,4.35.26l.26-.26-4.61-.24"/><path class="cls-7" d="M616.48,675.72c-16.51,0-31.78.29-44.19.79l-.22.22c12.12-.54,27.58-.87,44.41-.87s32.3.33,44.42.87l-.22-.22c-12.41-.5-27.69-.79-44.2-.79"/><path class="cls-71" d="M670.1,677.23l-.29.29c7.79.59,12.37,1.32,12.37,2.11,0,2-29.42,3.63-65.7,3.63s-65.69-1.62-65.69-3.63c0-.79,4.58-1.52,12.36-2.11l-.29-.29c-10.5.68-16.84,1.56-16.84,2.52,0,2.15,31.55,3.88,70.46,3.88S687,681.9,687,679.75c0-1-6.34-1.84-16.85-2.52"/><polyline class="cls-72" points="572.07 676.74 572.07 676.74 571.83 676.98 571.83 676.98 572.07 676.74"/><polyline class="cls-72" points="660.9 676.74 661.14 676.98 661.15 676.98 660.91 676.74 660.9 676.74"/><path class="cls-3" d="M665.75,677v.27c1.44.09,2.79.18,4.06.28l.29-.29c-1.38-.09-2.83-.18-4.35-.26"/><path class="cls-73" d="M567.31,681.5l-.09.09.09-.09h0m102.5-4-.34.34c5,.49,7.94,1,7.94,1.66s-4.29,1.41-11.57,2l-.09.09v-.09h0v.09l-.08-.08h0l.08.08h-1.24c-11.15.79-28.52,1.29-48,1.29s-36.83-.5-48-1.28h-1.28l-.1-.1c-7.27-.56-11.56-1.24-11.56-2s2.88-1.17,7.93-1.66l-.34-.34c-7.78.59-12.36,1.32-12.36,2.11,0,2,29.41,3.63,65.69,3.63s65.7-1.62,65.7-3.63c0-.79-4.58-1.52-12.37-2.11"/><polyline class="cls-74" points="571.83 676.98 571.83 676.98 571.56 677.25 571.56 677.25 571.83 676.98"/><polyline class="cls-74" points="661.14 676.98 661.41 677.25 661.42 677.25 661.15 676.98 661.14 676.98"/><path class="cls-75" d="M665.75,681.49h-.08l.08.08v-.09"/><path class="cls-3" d="M665.84,681.49h-.09v.09l.09-.09m-.09-4.25v.3c1.34.1,2.59.21,3.72.32l.34-.34c-1.27-.1-2.62-.19-4.06-.28"/><path class="cls-7" d="M567.31,681.5l-.09.09h1.28l-1.19-.09m98.36,0-1.16.08h1.24l-.08-.08M616.48,676c-17.24,0-32.93.37-44.65,1l-.27.27c11.14-.67,27.14-1.09,44.92-1.09s33.8.42,44.93,1.09l-.26-.27c-11.73-.6-27.42-1-44.67-1"/><path class="cls-76" d="M567.86,681l-.55.55h0l.55-.55h0m-4.37-3.09c-5,.49-7.93,1-7.93,1.66s4.29,1.41,11.56,2l-.68-.68c-3.9-.43-6.11-.91-6.11-1.41s1.28-.75,3.61-1.09l-.45-.45"/><polyline class="cls-77" points="571.56 677.25 571.56 677.25 571.24 677.57 571.24 677.57 571.56 677.25"/><polyline class="cls-77" points="661.41 677.25 661.73 677.57 661.74 677.57 661.42 677.25 661.41 677.25"/><path class="cls-78" d="M664.51,681.58h-8.22c-10.17.57-24.25.92-39.81.92s-29.59-.35-39.76-.91H568.5c11.15.78,28.5,1.28,48,1.28s36.88-.5,48-1.29m.61-.63h0l.55.55h0l-.55-.55m4.35-3.09-.45.44c2.34.35,3.62.71,3.62,1.1s-2.21,1-6.12,1.41l-.68.68c7.28-.56,11.57-1.24,11.57-2s-2.89-1.17-7.94-1.66"/><path class="cls-3" d="M666.52,680.81l-.77.08v.6h.09l.68-.68m-.77-3.27v.37c1.25.13,2.35.26,3.27.39l.45-.44c-1.13-.11-2.38-.22-3.72-.32"/><path class="cls-7" d="M567.86,681l-.55.55,1.19.09h8.22c-3.43-.19-6.41-.41-8.86-.64m97.26,0c-2.44.23-5.42.45-8.83.63h8.22l1.16-.08-.55-.55m-48.64-4.79c-17.78,0-33.78.42-44.92,1.09l-.32.32c10.22-.77,26.68-1.27,45.24-1.27s35,.5,45.25,1.27l-.32-.32c-11.13-.67-27.14-1.09-44.93-1.09"/><path class="cls-79" d="M568.51,680.3l-.65.65h0l.65-.65h0m-4.57-2c-2.33.34-3.61.7-3.61,1.09s2.21,1,6.11,1.41l-2.5-2.5"/><polyline class="cls-80" points="571.24 677.57 571.24 677.57 570.82 677.98 570.82 677.98 571.24 677.57"/><polyline class="cls-80" points="661.73 677.57 662.15 677.98 662.16 677.98 661.74 677.57 661.73 677.57"/><path class="cls-81" d="M656.29,681.58h-9.86c-8.43.34-18.77.53-29.95.53s-21.47-.19-29.9-.52h-9.86c10.17.56,24.23.91,39.76.91s29.64-.35,39.81-.92m8.18-1.28h0l.65.65h0l-.65-.65m4.55-2-2.5,2.51c3.91-.43,6.12-.9,6.12-1.41s-1.28-.75-3.62-1.1"/><path class="cls-3" d="M665.75,677.91v.57c1.38.25,2.11.52,2.11.8s-.73.55-2.11.81v.8l.77-.08,2.5-2.51c-.92-.13-2-.26-3.27-.39"/><path class="cls-7" d="M568.51,680.3l-.65.65c2.45.23,5.43.45,8.86.64h9.86c-8.1-.32-14.44-.77-18.07-1.29m96,0c-3.63.52-10,1-18,1.28h9.86c3.41-.18,6.39-.4,8.83-.63l-.65-.65m-48-4c-18.56,0-35,.5-45.24,1.27l-.42.41c8.55-.91,25.79-1.53,45.66-1.53s37.13.62,45.67,1.53l-.42-.41c-10.22-.77-26.68-1.27-45.25-1.27"/><polyline class="cls-82" points="569.79 679.01 569.79 679.01 568.51 680.3 568.51 680.3 569.79 679.01"/><polyline class="cls-83" points="570.82 677.98 570.82 677.98 569.79 679.01 569.79 679.01 570.82 677.98"/><polyline class="cls-84" points="663.18 679.01 663.18 679.01 664.47 680.3 664.47 680.3 663.18 679.01"/><polyline class="cls-83" points="662.15 677.98 663.18 679.01 663.18 679.01 662.16 677.98 662.15 677.98"/><path class="cls-85" d="M646.43,681.58H632.27c-4.93.1-10.25.15-15.79.15s-10.81-.05-15.73-.14H586.58c8.43.33,18.75.52,29.9.52s21.52-.19,29.95-.53"/><path class="cls-4" d="M662.16,678l1,1,1.29,1.29,1.28-.21v-1.61c-.92-.17-2.13-.34-3.59-.5"/><path class="cls-3" d="M665.75,678.48v1.61c1.38-.26,2.11-.53,2.11-.81s-.73-.55-2.11-.8"/><path class="cls-7" d="M616.48,676.45c-19.87,0-37.11.62-45.66,1.53l-1,1-1.28,1.29c3.63.52,10,1,18.07,1.29h14.17c-18-.36-30.87-1.31-30.87-2.42,0-1.43,20.87-2.57,46.6-2.57s46.61,1.14,46.61,2.57c0,1.11-12.85,2.06-30.82,2.41h14.16c8.09-.32,14.41-.76,18-1.28L663.18,679l-1-1c-8.54-.91-25.79-1.53-45.67-1.53"/><path class="cls-86" d="M632.27,681.58H600.75c4.92.09,10.21.14,15.73.14s10.86-.05,15.79-.15"/><path class="cls-7" d="M616.48,681.35c-23.1,0-41.83-1-41.83-2.3s18.73-2.31,41.83-2.31,41.84,1,41.84,2.31-18.74,2.3-41.84,2.3m0-4.75c-25.73,0-46.6,1.14-46.6,2.57,0,1.11,12.87,2.06,30.87,2.42h31.52c18-.35,30.82-1.3,30.82-2.41,0-1.43-20.87-2.57-46.61-2.57"/><path class="cls-7" d="M616.48,681c-20.46,0-37.06-.91-37.06-2s16.6-2,37.06-2,37.07.91,37.07,2-16.6,2-37.07,2m0-4.23c-23.1,0-41.83,1-41.83,2.31s18.73,2.3,41.83,2.3,41.84-1,41.84-2.3-18.74-2.31-41.84-2.31"/><path class="cls-7" d="M616.48,680.59c-17.83,0-32.28-.79-32.28-1.78S598.65,677,616.48,677s32.29.8,32.29,1.78-14.46,1.78-32.29,1.78m0-3.7c-20.46,0-37.06.91-37.06,2s16.6,2,37.06,2,37.07-.91,37.07-2-16.6-2-37.07-2"/><path class="cls-5" d="M616.48,677c-17.83,0-32.28.8-32.28,1.78s14.45,1.78,32.28,1.78,32.29-.79,32.29-1.78S634.31,677,616.48,677"/></svg>